<!DOCTYPE svg PUBLIC "-//W3C//DTD SVG 1.1//EN" "http://www.w3.org/Graphics/SVG/1.1/DTD/svg11.dtd">
<!-- Uploaded to: SVG Repo, www.svgrepo.com, Transformed by: SVG Repo Mixer Tools -->
<svg fill="#000000" width="800px" height="800px" viewBox="-2.4 -2.4 28.80 28.80" data-name="Layer 1" id="Layer_1" xmlns="http://www.w3.org/2000/svg">
<g id="SVGRepo_bgCarrier" stroke-width="0">
<rect x="-2.4" y="-2.4" width="28.80" height="28.80" rx="0" fill="#ffffff" strokewidth="0"/>
</g>
<g id="SVGRepo_tracerCarrier" stroke-linecap="round" stroke-linejoin="round"/>
<g id="SVGRepo_iconCarrier">
<title/>
<path d="M20,15a5,5,0,0,0-2-4V9.71l1.39,1.08,1.23-1.58L11,1.73,1.39,9.21l1.23,1.58L4,9.71V18h7a5,5,0,0,0,6.73,1.17l3.54,3.54,1.41-1.41-3.54-3.54A5,5,0,0,0,20,15ZM6,16V8.16l5-3.89,5,3.89V10.1A5,5,0,0,0,10.1,16Zm9,2a3,3,0,1,1,3-3A3,3,0,0,1,15,18Z"/>
</g>
</svg>